<svg width="50" height="50" viewBox="0 0 50 50" fill="none" xmlns="http://www.w3.org/2000/svg">
<path d="M20.8334 31.25L20.8334 25" stroke="#33363F" stroke-width="2" stroke-linecap="round"/>
<path d="M29.1666 31.25L29.1666 25" stroke="#33363F" stroke-width="2" stroke-linecap="round"/>
<path d="M6.25 14.5833H43.75H41.5C39.6144 14.5833 38.6716 14.5833 38.0858 15.1691C37.5 15.7549 37.5 16.6977 37.5 18.5833V37.6667C37.5 39.5523 37.5 40.4951 36.9142 41.0809C36.3284 41.6667 35.3856 41.6667 33.5 41.6667H16.5C14.6144 41.6667 13.6716 41.6667 13.0858 41.0809C12.5 40.4951 12.5 39.5523 12.5 37.6667V18.5833C12.5 16.6977 12.5 15.7549 11.9142 15.1691C11.3284 14.5833 10.3856 14.5833 8.5 14.5833H6.25Z" stroke="#33363F" stroke-width="2" stroke-linecap="round"/>
<path d="M20.9753 7.02206C21.2127 6.80057 21.7358 6.60485 22.4635 6.46526C23.1911 6.32566 24.0827 6.25 25 6.25C25.9172 6.25 26.8088 6.32566 27.5365 6.46526C28.2641 6.60485 28.7873 6.80057 29.0246 7.02206" stroke="#33363F" stroke-width="2" stroke-linecap="round"/>
</svg>
